<?xml version="1.0" encoding="utf-8"?>
<!-- Uploaded to: SVG Repo, www.svgrepo.com, Generator: SVG Repo Mixer Tools -->
<svg width="800px" height="800px" viewBox="0 0 1024 1024" class="icon"  version="1.1" xmlns="http://www.w3.org/2000/svg"><path d="M853.333333 170.666667H170.666667c-35.285333 0-64 28.714667-64 64v512a21.333333 21.333333 0 0 0 21.333333 21.333333h768a21.333333 21.333333 0 0 0 21.333333-21.333333V234.666667c0-35.285333-28.714667-64-64-64z" fill="#444444" /><path d="M21.333333 704v42.666667c0 58.816 47.850667 106.666667 106.666667 106.666666h768c58.816 0 106.666667-47.850667 106.666667-106.666666v-42.666667H21.333333z" fill="#E6E6E6" /><path d="M170.666667 234.666667h682.666666v405.333333H170.666667z" fill="#43A6DD" /><path d="M576 768h-128a42.666667 42.666667 0 0 1-42.666667-42.666667v-21.333333h213.333334v21.333333a42.666667 42.666667 0 0 1-42.666667 42.666667z" fill="#B3B3B3" /></svg>